HIERARCHY
ROOT joint_Root
{
	OFFSET 0.0 0.0 0.0
	CHANNELS 6 Xposition Yposition Zposition Zrotation Xrotation Yrotation 
	JOINT Hips
	{
		OFFSET 4.5925 91.4895 -427.239
		CHANNELS 6 Xposition Yposition Zposition Zrotation Xrotation Yrotation 
		JOINT Spine
		{
			OFFSET 15.7357 0.0 0.0
			CHANNELS 6 Xposition Yposition Zposition Zrotation Xrotation Yrotation 
			JOINT Chest
			{
				OFFSET 8.98455 -0.406207 0.0
				CHANNELS 6 Xposition Yposition Zposition Zrotation Xrotation Yrotation 
				JOINT Neck
				{
					OFFSET 16.3773 0.0 0.0
					CHANNELS 6 Xposition Yposition Zposition Zrotation Xrotation Yrotation 
					JOINT Head
					{
						OFFSET 6.45672 0.0 0.0
						CHANNELS 6 Xposition Yposition Zposition Zrotation Xrotation Yrotation 
						End Site
						{
							OFFSET 0.0 0.0 0.0
						}
					}
				}
				JOINT Shoulder_L
				{
					OFFSET 12.9942 -0.242716 4.98039
					CHANNELS 6 Xposition Yposition Zposition Zrotation Xrotation Yrotation 
					JOINT UpperArm_L
					{
						OFFSET 5.34809 0.0 0.0
						CHANNELS 6 Xposition Yposition Zposition Zrotation Xrotation Yrotation 
						JOINT LowerArm_L
						{
							OFFSET 24.3286 1.87007e-05 0.0
							CHANNELS 6 Xposition Yposition Zposition Zrotation Xrotation Yrotation 
							JOINT Hand_L
							{
								OFFSET 22.2916 0.0 0.0
								CHANNELS 6 Xposition Yposition Zposition Zrotation Xrotation Yrotation 
								End Site
								{
									OFFSET 0.0 0.0 0.0
								}
							}
						}
					}
				}
				JOINT Shoulder_R
				{
					OFFSET 12.9945 -0.242716 -4.98039
					CHANNELS 6 Xposition Yposition Zposition Zrotation Xrotation Yrotation 
					JOINT UpperArm_R
					{
						OFFSET -5.34813 0.0 0.0
						CHANNELS 6 Xposition Yposition Zposition Zrotation Xrotation Yrotation 
						JOINT LowerArm_R
						{
							OFFSET -24.3289 0.000322201 0.0
							CHANNELS 6 Xposition Yposition Zposition Zrotation Xrotation Yrotation 
							JOINT Hand_R
							{
								OFFSET -22.2915 -0.000108084 0.0
								CHANNELS 6 Xposition Yposition Zposition Zrotation Xrotation Yrotation 
								End Site
								{
									OFFSET 0.0 0.0 0.0
								}
							}
						}
					}
				}
			}
		}
		JOINT UpperLeg_L
		{
			OFFSET -2.19248 -6.46944 0.0
			CHANNELS 6 Xposition Yposition Zposition Zrotation Xrotation Yrotation 
			JOINT LowerLeg_L
			{
				OFFSET 39.0811 0.0 -1.23785e-05
				CHANNELS 6 Xposition Yposition Zposition Zrotation Xrotation Yrotation 
				JOINT Foot_L
				{
					OFFSET 40.9854 0.0 -1.26872e-05
					CHANNELS 6 Xposition Yposition Zposition Zrotation Xrotation Yrotation 
					JOINT Toes_L
					{
						OFFSET 11.7543 0.0 0.0
						CHANNELS 6 Xposition Yposition Zposition Zrotation Xrotation Yrotation 
						End Site
						{
							OFFSET 0.0 0.0 0.0
						}
					}
				}
			}
		}
		JOINT UpperLeg_R
		{
			OFFSET -2.19251 6.46944 0.0
			CHANNELS 6 Xposition Yposition Zposition Zrotation Xrotation Yrotation 
			JOINT LowerLeg_R
			{
				OFFSET -39.0811 -0.00228153 -0.0401928
				CHANNELS 6 Xposition Yposition Zposition Zrotation Xrotation Yrotation 
				JOINT Foot_R
				{
					OFFSET -40.9854 0.0 0.0
					CHANNELS 6 Xposition Yposition Zposition Zrotation Xrotation Yrotation 
					JOINT Toes_R
					{
						OFFSET -11.7543 0.0 0.0
						CHANNELS 6 Xposition Yposition Zposition Zrotation Xrotation Yrotation 
						End Site
						{
							OFFSET 0.0 0.0 0.0
						}
					}
				}
			}
		}
	}
}
MOTION
Frames:	8
Frame Time:	0.0333333
0.000000 0.000000 0.000000 0.000000 0.000000 -0.000000 -1.519130 90.029000 -1.390130 89.798100 -2.319420 11.933600 15.735700 0.000005 -0.000001 90.631900 76.175600 -89.424300 8.984550 -0.406207 -0.000000 19.877900 0.425141 2.347980 16.377300 -0.000001 -0.000001 8.854850 -3.187330 1.199720 6.456720 -0.000001 -0.000000 -6.022830 -3.072780 5.273600 12.994200 -0.242716 4.980390 -90.117100 0.333041 -70.622100 5.348090 -0.000007 -0.000001 -75.228700 -8.666990 -77.883400 24.328600 0.000019 0.000005 41.047300 -13.247200 -104.744000 22.291600 -0.000001 0.000005 13.341700 4.904630 9.285440 12.994500 -0.242716 -4.980390 88.969100 10.294500 -84.250000 -5.348130 -0.000001 -0.000004 -53.350300 33.491600 -26.432700 -24.328900 0.000322 -0.000009 1.257020 3.294420 -20.914500 -22.291500 -0.000108 -0.000004 16.736800 5.419530 -3.583050 -2.192480 -6.469440 -0.000000 -173.535000 -12.449200 -0.895385 39.081100 -0.000007 -0.000012 -0.228289 0.329888 34.684300 40.985400 -0.000006 -0.000013 -0.538800 5.427460 -71.335900 11.754300 -0.000000 0.000003 -0.000132 -0.001303 -16.627300 -2.192510 6.469440 -0.000001 174.261000 19.446000 -179.933000 -39.081100 -0.002282 -0.040193 -0.111717 0.165165 34.850600 -40.985400 0.000008 0.000006 6.267450 11.854300 -73.274500 -11.754300 -0.000006 -0.000006 -0.001078 -0.016509 -17.244500
0.000000 0.000000 0.000000 0.000000 0.000000 -0.000000 -1.530500 90.025600 -1.395570 89.799200 -2.326870 11.953900 15.735700 0.000005 -0.000001 90.659400 76.165100 -89.453300 8.984550 -0.406207 -0.000000 19.898800 0.438450 2.342790 16.377300 -0.000001 -0.000001 8.918280 -3.201170 1.223610 6.456720 -0.000001 -0.000000 -5.986250 -3.062320 5.241400 12.994200 -0.242716 4.980390 -90.112100 0.318484 -70.605500 5.348090 -0.000007 -0.000001 -75.316300 -8.662200 -77.976300 24.328600 0.000019 0.000005 41.096600 -13.277500 -104.751000 22.291600 -0.000001 0.000005 13.425800 4.902340 9.331160 12.994500 -0.242716 -4.980390 88.966400 10.286600 -84.231000 -5.348130 -0.000001 -0.000004 -53.379200 33.490700 -26.460900 -24.328900 0.000322 -0.000009 1.271210 3.325390 -20.950400 -22.291500 -0.000108 -0.000004 16.715300 5.419540 -3.583470 -2.192480 -6.469440 -0.000000 -173.521000 -12.430200 -0.880407 39.081100 -0.000007 -0.000012 -0.230617 0.333123 34.694900 40.985400 -0.000006 -0.000013 -0.561262 5.402470 -71.338100 11.754300 -0.000000 0.000003 -0.000133 -0.001316 -16.627700 -2.192510 6.469440 -0.000001 174.275000 19.408900 -179.930000 -39.081100 -0.002282 -0.040193 -0.112124 0.165613 34.872700 -40.985400 0.000008 0.000006 6.307020 11.826500 -73.291500 -11.754300 -0.000006 -0.000006 -0.001199 -0.018200 -17.313200
0.000000 0.000000 0.000000 0.000000 0.000000 -0.000000 -1.539040 90.025100 -1.409930 89.800800 -2.329490 11.974900 15.735700 0.000005 -0.000001 90.664600 76.142100 -89.460900 8.984550 -0.406207 -0.000000 19.944700 0.441587 2.337190 16.377300 -0.000001 -0.000001 8.978010 -3.196630 1.212790 6.456720 -0.000001 -0.000000 -6.023400 -3.049760 5.219370 12.994200 -0.242716 4.980390 -90.113800 0.322844 -70.583000 5.348090 -0.000007 -0.000001 -75.408800 -8.690890 -78.093600 24.328600 0.000019 0.000005 40.979900 -13.307500 -104.841000 22.291600 -0.000001 0.000005 13.407300 4.901270 9.352570 12.994500 -0.242716 -4.980390 88.963000 10.284900 -84.211300 -5.348130 -0.000001 -0.000004 -53.337600 33.528700 -26.566900 -24.328900 0.000322 -0.000009 1.268820 3.318020 -20.956700 -22.291500 -0.000108 -0.000004 16.760500 5.418060 -3.533740 -2.192480 -6.469440 -0.000000 -173.516000 -12.439300 -0.873628 39.081100 -0.000007 -0.000012 -0.226823 0.327568 34.700900 40.985400 -0.000006 -0.000013 -0.556718 5.422650 -71.329000 11.754300 -0.000000 0.000003 -0.000129 -0.001281 -16.626400 -2.192510 6.469440 -0.000001 174.277000 19.430300 -179.930000 -39.081100 -0.002282 -0.040193 -0.110573 0.163330 34.882000 -40.985400 0.000008 0.000006 6.299950 11.832600 -73.277000 -11.754300 -0.000006 -0.000006 -0.001098 -0.016793 -17.256000
0.000000 0.000000 0.000000 0.000000 0.000000 -0.000000 -1.546910 90.022000 -1.428770 89.811600 -2.321600 11.980100 15.735700 0.000005 -0.000001 90.648300 76.128700 -89.448800 8.984550 -0.406207 -0.000000 19.971600 0.433970 2.329920 16.377300 -0.000001 -0.000001 9.007270 -3.185080 1.184060 6.456720 -0.000001 -0.000000 -6.017770 -3.026550 5.181710 12.994200 -0.242716 4.980390 -90.111200 0.315082 -70.564500 5.348090 -0.000007 -0.000001 -75.445400 -8.704750 -78.154900 24.328600 0.000019 0.000005 40.902400 -13.327200 -104.900000 22.291600 -0.000001 0.000005 13.558600 4.901360 9.350660 12.994500 -0.242716 -4.980390 88.962200 10.285100 -84.207000 -5.348130 -0.000001 -0.000004 -53.326500 33.521400 -26.603400 -24.328900 0.000322 -0.000009 1.286590 3.358600 -20.990400 -22.291500 -0.000108 -0.000004 16.742700 5.418580 -3.551330 -2.192480 -6.469440 -0.000000 -173.519000 -12.453200 -0.890742 39.081100 -0.000007 -0.000012 -0.229626 0.331432 34.715800 40.985400 -0.000006 -0.000013 -0.564324 5.409460 -71.319100 11.754300 -0.000000 0.000003 -0.000121 -0.001210 -16.623800 -2.192510 6.469440 -0.000001 174.268000 19.414000 -179.942000 -39.081100 -0.002282 -0.040193 -0.114412 0.168678 34.907400 -40.985400 0.000008 0.000006 6.325830 11.818400 -73.291700 -11.754300 -0.000006 -0.000006 -0.001297 -0.019540 -17.367700
0.000000 0.000000 0.000000 0.000000 0.000000 -0.000000 -1.556330 90.026400 -1.453960 89.789800 -2.319530 11.990800 15.735700 0.000005 -0.000001 90.664500 76.108900 -89.460300 8.984550 -0.406207 -0.000000 20.011200 0.443017 2.337760 16.377300 -0.000001 -0.000001 9.018590 -3.179640 1.145910 6.456720 -0.000001 -0.000000 -6.016910 -3.016550 5.160030 12.994200 -0.242716 4.980390 -90.102300 0.289579 -70.548600 5.348090 -0.000007 -0.000001 -75.497900 -8.691330 -78.201100 24.328600 0.000019 0.000005 40.854900 -13.328900 -104.926000 22.291600 -0.000001 0.000005 13.536400 4.902200 9.334000 12.994500 -0.242716 -4.980390 88.964200 10.287900 -84.219200 -5.348130 -0.000001 -0.000004 -53.310300 33.527400 -26.640500 -24.328900 0.000322 -0.000009 1.271850 3.320090 -20.990400 -22.291500 -0.000108 -0.000004 16.756300 5.418860 -3.560650 -2.192480 -6.469440 -0.000000 -173.499000 -12.429000 -0.896761 39.081100 -0.000007 -0.000012 -0.227457 0.328336 34.713000 40.985400 -0.000006 -0.000013 -0.560271 5.431720 -71.301700 11.754300 -0.000000 0.000003 -0.000125 -0.001242 -16.625000 -2.192510 6.469440 -0.000001 174.305000 19.453600 -179.943000 -39.081100 -0.002282 -0.040193 -0.107345 0.158635 34.893000 -40.985400 0.000008 0.000006 6.388130 11.808300 -73.279000 -11.754300 -0.000006 -0.000006 -0.001211 -0.018362 -17.319800
0.000000 0.000000 0.000000 0.000000 0.000000 -0.000000 -1.546870 90.032800 -1.489920 89.782900 -2.296830 11.991300 15.735700 0.000005 -0.000001 90.682800 76.099900 -89.474600 8.984550 -0.406207 -0.000000 20.028900 0.452447 2.343870 16.377300 -0.000001 -0.000001 9.004290 -3.176060 1.141050 6.456720 -0.000001 -0.000000 -5.980770 -3.012230 5.115950 12.994200 -0.242716 4.980390 -90.101000 0.286020 -70.556100 5.348090 -0.000007 -0.000001 -75.491300 -8.670430 -78.207800 24.328600 0.000019 0.000005 40.980600 -13.339800 -104.874000 22.291600 -0.000001 0.000005 13.429400 4.902380 9.330320 12.994500 -0.242716 -4.980390 88.964900 10.271300 -84.214300 -5.348130 -0.000001 -0.000004 -53.296600 33.542900 -26.656500 -24.328900 0.000322 -0.000009 1.301020 3.404570 -20.943900 -22.291500 -0.000108 -0.000004 16.719000 5.419450 -3.580430 -2.192480 -6.469440 -0.000000 -173.506000 -12.424400 -0.924870 39.081100 -0.000007 -0.000012 -0.224820 0.324647 34.703200 40.985400 -0.000006 -0.000013 -0.551729 5.432560 -71.266400 11.754300 -0.000000 0.000003 -0.000133 -0.001309 -16.627500 -2.192510 6.469440 -0.000001 174.303000 19.474300 -179.952000 -39.081100 -0.002282 -0.040193 -0.109557 0.161953 34.868800 -40.985400 0.000008 0.000006 6.370140 11.833200 -73.239500 -11.754300 -0.000006 -0.000006 -0.001268 -0.019150 -17.351900
0.000000 0.000000 0.000000 0.000000 0.000000 -0.000000 -1.541410 90.040700 -1.511410 89.803200 -2.312190 12.012700 15.735700 0.000005 -0.000001 90.712800 76.084000 -89.520900 8.984550 -0.406207 -0.000000 20.060400 0.465635 2.308770 16.377300 -0.000001 -0.000001 9.007160 -3.166570 1.121510 6.456720 -0.000001 -0.000000 -5.980200 -3.002590 5.152940 12.994200 -0.242716 4.980390 -90.100000 0.283144 -70.541000 5.348090 -0.000007 -0.000001 -75.463800 -8.673890 -78.233800 24.328600 0.000019 0.000005 40.908200 -13.281200 -104.849000 22.291600 -0.000001 0.000005 13.482600 4.904280 9.292390 12.994500 -0.242716 -4.980390 88.964800 10.283200 -84.220300 -5.348130 -0.000001 -0.000004 -53.281800 33.567200 -26.652800 -24.328900 0.000322 -0.000009 1.301780 3.406910 -20.941800 -22.291500 -0.000108 -0.000004 16.680700 5.418580 -3.551320 -2.192480 -6.469440 -0.000000 -173.516000 -12.460900 -0.885081 39.081100 -0.000007 -0.000012 -0.226570 0.327727 34.658000 40.985400 -0.000006 -0.000013 -0.544420 5.447610 -71.237200 11.754300 -0.000000 0.000003 -0.000120 -0.001198 -16.623300 -2.192510 6.469440 -0.000001 174.271000 19.487600 -179.930000 -39.081100 -0.002282 -0.040193 -0.108838 0.161083 34.841600 -40.985400 0.000008 0.000006 6.320540 11.867100 -73.201700 -11.754300 -0.000006 -0.000006 -0.001238 -0.018728 -17.334700
0.000000 0.000000 0.000000 0.000000 0.000000 -0.000000 -1.535070 90.040900 -1.545830 89.768300 -2.343490 11.985700 15.735700 0.000005 -0.000001 90.772700 76.090100 -89.578200 8.984550 -0.406207 -0.000000 20.047500 0.494087 2.309090 16.377300 -0.000001 -0.000001 8.980820 -3.164800 1.120140 6.456720 -0.000001 -0.000000 -5.975360 -3.005330 5.118370 12.994200 -0.242716 4.980390 -90.097200 0.274666 -70.520000 5.348090 -0.000007 -0.000001 -75.511400 -8.696500 -78.241800 24.328600 0.000019 0.000005 40.798500 -13.210300 -104.830000 22.291600 -0.000001 0.000005 13.407600 4.909390 9.190080 12.994500 -0.242716 -4.980390 88.965700 10.261300 -84.212800 -5.348130 -0.000001 -0.000004 -53.305600 33.609400 -26.639400 -24.328900 0.000322 -0.000009 1.275260 3.342700 -20.912000 -22.291500 -0.000108 -0.000004 16.743600 5.418840 -3.560010 -2.192480 -6.469440 -0.000000 -173.497000 -12.470000 -0.953874 39.081100 -0.000007 -0.000012 -0.224454 0.324261 34.691400 40.985400 -0.000006 -0.000013 -0.544814 5.417390 -71.228500 11.754300 -0.000000 0.000003 -0.000134 -0.001318 -16.627800 -2.192510 6.469440 -0.000001 174.330000 19.486700 -180.000000 -39.081100 -0.002282 -0.040193 -0.108590 0.160676 34.850300 -40.985400 0.000008 0.000006 6.380410 11.846400 -73.183400 -11.754300 -0.000006 -0.000006 -0.001368 -0.020498 -17.406600
